<svg viewBox="0 0 472.24035 81.751427" xmlns="http://www.w3.org/2000/svg">
   <path
      style="font-weight:bold;font-size:72px;font-family:Arial;-inkscape-font-specification:'Arial Bold';text-align:center;letter-spacing:-1px;text-anchor:middle;fill:#ffffff;fill-rule:evenodd;stroke:#000000;stroke-width:3.00652;stroke-linecap:round;stroke-miterlimit:1;paint-order:stroke fill markers"
      d="M 79.141568,78.9798 H 62.124212 L 55.359538,61.38111 H 24.390048 L 17.995343,78.9798 H 1.4007582 L 31.577512,1.50326 H 48.119228 Z M 50.338885,48.32741 39.663404,19.57757 29.199306,48.32741 Z M 100.04626,78.9798 H 85.195698 V 22.85422 h 13.793568 v 7.98019 q 3.540884,-5.65483 6.341864,-7.45171 2.85386,-1.79685 6.44759,-1.79685 5.0735,0 9.77704,2.80098 l -4.59785,12.948 q -3.75228,-2.43104 -6.97607,-2.43104 -3.11808,0 -5.28487,1.74399 -2.16681,1.69118 -3.4352,6.18334 -1.21551,4.49216 -1.21551,18.81423 z m 25.76678,0 V 1.50326 h 14.85057 V 29.4075 q 6.87035,-7.82165 16.27745,-7.82165 10.25272,0 16.96452,7.45169 6.71181,7.39886 6.71181,21.29813 0,14.3749 -6.87036,22.14371 -6.81751,7.76879 -16.59456,7.76879 -4.80926,0 -9.51282,-2.37819 -4.65071,-2.43107 -8.03304,-7.13462 V 78.9798 Z M 140.5579,49.70148 q 0,8.72008 2.74814,12.89514 3.85798,5.91908 10.25269,5.91908 4.91498,0 8.35015,-4.17506 3.48803,-4.22792 3.48803,-13.26508 0,-9.61852 -3.48803,-13.84644 -3.48804,-4.28076 -8.93146,-4.28076 -5.33776,0 -8.87863,4.17507 -3.54088,4.12223 -3.54089,12.57805 z m 47.06492,0.42279 q 0,-7.39886 3.64657,-14.32207 3.64657,-6.92321 10.30554,-10.56979 6.71182,-3.64656 14.95627,-3.64656 12.7366,0 20.87534,8.29727 8.13871,8.24444 8.13871,20.87534 0,12.7366 -8.24442,21.13958 -8.19159,8.35013 -20.66395,8.35013 -7.71593,0 -14.74484,-3.48803 -6.97607,-3.48804 -10.62264,-10.19984 -3.64657,-6.76468 -3.64658,-16.43603 z m 15.2205,0.79274 q 0,8.35013 3.96367,12.78943 3.96368,4.43933 9.77707,4.43933 5.81336,0 9.7242,-4.43933 3.96366,-4.4393 3.96366,-12.89512 0,-8.24446 -3.96366,-12.68376 -3.91084,-4.43931 -9.7242,-4.43931 -5.81339,0 -9.77707,4.43931 -3.96367,4.4393 -3.96367,12.78945 z M 269.88515,78.9798 H 255.03458 V 22.85422 h 13.79358 v 7.98019 q 3.54088,-5.65483 6.34187,-7.45171 2.85385,-1.79685 6.44757,-1.79685 5.0735,0 9.77706,2.80098 l -4.59785,12.948 q -3.75228,-2.43104 -6.97607,-2.43104 -3.11809,0 -5.28488,1.74399 -2.16682,1.69118 -3.4352,6.18334 -1.21551,4.49216 -1.21551,18.81423 z m 77.87584,0 H 333.9674 v -8.24444 q -3.43517,4.80924 -8.13871,7.18745 -4.65071,2.32536 -9.40711,2.32536 -9.67137,0 -16.59457,-7.76879 -6.87037,-7.82165 -6.87037,-21.77378 0,-14.2692 6.71182,-21.66806 6.71181,-7.45169 16.9645,-7.45169 9.40712,0 16.27749,7.82165 V 1.50326 h 14.85054 z M 308.12428,49.70148 q 0,8.98432 2.48391,13.00083 3.59372,5.81339 10.04129,5.81339 5.12635,0 8.72008,-4.33361 3.59372,-4.38647 3.59372,-13.0537 0,-9.67135 -3.48803,-13.89927 -3.48802,-4.28076 -8.93146,-4.28076 -5.28489,0 -8.87861,4.22792 -3.54089,4.17507 -3.5409,12.5252 z m 85.2747,11.41537 14.79771,2.4839 q -2.85385,8.13874 -9.03717,12.4195 -6.13047,4.22792 -15.37903,4.22792 -14.63916,0 -21.66807,-9.56566 -5.54915,-7.6631 -5.54915,-19.34271 0,-13.95213 7.29316,-21.82661 7.29316,-7.92734 18.44428,-7.92734 12.52519,0 19.76549,8.29727 7.24032,8.24444 6.92321,25.31465 h -37.20565 q 0.15855,6.60613 3.59374,10.30554 3.43518,3.64659 8.56152,3.64659 3.48802,0 5.86623,-1.90257 2.37822,-1.90256 3.59373,-6.13048 z m 0.84558,-15.0091 q -0.15855,-6.44756 -3.32947,-9.77705 -3.17095,-3.38234 -7.71595,-3.38234 -4.86211,0 -8.03305,3.54087 -3.17093,3.54089 -3.11808,9.61852 z m 18.2094,32.87205 20.24115,-28.90837 -19.39556,-27.21721 h 18.12719 l 9.9356,15.43189 10.4641,-15.43189 h 17.44014 L 450.24096,49.43723 471.01059,78.9798 H 452.7777 L 441.36233,61.59249 429.84128,78.9798 Z"
      id="text27" aria-label="Arbordex" />
</svg>